<?xml version="1.0" encoding="UTF-8" standalone="no"?>
<svg
   width="126.283"
   height="22.754"
   version="1.1"
   id="svg12"
   sodipodi:docname="logo.svg"
   inkscape:version="1.2.2 (b0a8486541, 2022-12-01)"
   xmlns:inkscape="http://www.inkscape.org/namespaces/inkscape"
   xmlns:sodipodi="http://sodipodi.sourceforge.net/DTD/sodipodi-0.dtd"
   xmlns="http://www.w3.org/2000/svg"
   xmlns:svg="http://www.w3.org/2000/svg">
  <defs
     id="defs16" />
  <sodipodi:namedview
     id="namedview14"
     pagecolor="#ffffff"
     bordercolor="#666666"
     borderopacity="1.0"
     inkscape:showpageshadow="2"
     inkscape:pageopacity="0.0"
     inkscape:pagecheckerboard="0"
     inkscape:deskcolor="#d1d1d1"
     showgrid="false"
     inkscape:zoom="10.745706"
     inkscape:cx="63.141499"
     inkscape:cy="11.353372"
     inkscape:window-width="2560"
     inkscape:window-height="1403"
     inkscape:window-x="0"
     inkscape:window-y="0"
     inkscape:window-maximized="1"
     inkscape:current-layer="svg12" />
  <text
     xml:space="preserve"
     x="-0.84500003"
     y="12.955"
     style="font-style:normal;font-variant:normal;font-weight:400;font-stretch:normal;font-size:18.7751px;font-family:Fanwood;-inkscape-font-specification:Fanwood;display:none;stroke-width:1.56459"
     id="text4"><tspan
       x="-0.84500003"
       y="12.955"
       style="stroke-width:1.56459"
       id="tspan2">CLAY STORIES</tspan></text>
  <text
     xml:space="preserve"
     x="44.903999"
     y="22.570999"
     style="font-style:normal;font-variant:normal;font-weight:400;font-stretch:normal;font-size:10.197px;line-height:1.25;font-family:Fanwood;-inkscape-font-specification:Fanwood;letter-spacing:0;word-spacing:0;display:none;fill:#000000;fill-opacity:1;stroke:none;stroke-width:0.477987"
     id="text8"><tspan
       x="44.903999"
       y="22.570999"
       style="stroke-width:0.477987"
       id="tspan6">BERLIN</tspan></text>
  <path
     d="M84.94 19.144h40.77M.533 19.144h40.77"
     style="fill:#000;fill-opacity:1;stroke:#000;stroke-width:1.06663;stroke-linecap:round;stroke-dasharray:none;stroke-opacity:1;paint-order:markers stroke fill;stop-color:#000"
     id="path10" />
  <g
     aria-label="CLAY STORIES"
     id="text301"
     style="font-size:18.7751px;font-family:Fanwood;-inkscape-font-specification:Fanwood;stroke-width:1.56459">
    <path
       d="m -1.2049675e-4,6.6653412 c 0,4.5247988 3.13544179675,6.5900608 6.59006039675,6.5900608 2.3844377,0 4.7313251,-1.314258 4.7688751,-1.652209 0.225302,-1.6897594 0.300402,-2.3093377 0.300402,-2.4970887 0,-0.1314257 -0.03755,-0.2253012 -0.225301,-0.2440763 -0.300402,-0.03755 -0.375502,0 -0.413052,0.2628514 l -0.244077,2.1215866 c -0.01877,0.206526 -1.5395579,1.276707 -3.6611443,1.276707 -2.8913655,0 -5.2007029,-2.6472896 -5.2007029,-5.8202816 0,-3.3982932 1.9338353,-5.95170694 4.656225,-5.95170694 2.4970883,0 4.3370482,1.97138554 4.3370482,2.23423694 0,0.168976 -0.0751,1.6146587 -0.0751,1.6897591 0,0.1689759 0.01877,0.2253012 0.356727,0.2253012 0.244076,0 0.300401,-0.0751 0.300401,-0.3004016 0,-0.9575301 0.0751,-3.2856426 0.0751,-3.62359443 0,-0.22530121 -0.09388,-0.24407631 -0.375502,-0.24407631 -0.281627,0 -0.281627,0.0375502 -0.281627,0.24407631 V 1.4834134 c 0,0.3191767 -0.150201,0.187751 -0.319177,0.056325 C 10.213534,1.2768873 8.9180523,0.18793144 6.7025905,0.18793144 c -3.7925704,0 -6.70271099675,2.55341366 -6.70271099675,6.47740976 z"
       id="path307" />
    <path
       d="m 13.630619,12.673373 c 0,0.319177 0,0.337952 0.244076,0.337952 0.431828,0 1.72731,-0.05632 2.290563,-0.05632 0.563253,0 6.402309,0.05632 6.834136,0.05632 0.187751,0 0.394277,-0.03755 0.413053,-0.206526 0.0751,-0.544478 0.394277,-2.365663 0.394277,-2.515863 0,-0.112651 -0.187751,-0.187751 -0.375502,-0.187751 -0.112651,0 -0.187751,0.05633 -0.206526,0.1502 l -0.225302,1.577109 c -0.05632,0.413052 -0.131425,0.413052 -0.431827,0.431827 -0.206526,0.01877 -3.586044,0.112651 -5.501104,0.112651 -0.112651,0 -0.150201,-0.91998 -0.150201,-2.177912 V 4.9943572 c 0,-1.8211847 0.01878,-4.03664663 0.168976,-4.03664663 h 1.314257 c 0.300401,0 0.337951,-0.0563253 0.337951,-0.28162651 0,-0.26285141 -0.01877,-0.28162651 -0.319176,-0.28162651 -0.431828,0 -1.652209,0.0563253 -2.215462,0.0563253 -0.563253,0 -1.76486,-0.0563253 -2.065261,-0.0563253 -0.300402,0 -0.375502,0.0187751 -0.375502,0.28162651 0,0.26285141 0.05632,0.28162651 0.300401,0.28162651 h 1.088956 c 0.112651,0 0.131426,0.65712853 0.131426,1.67098393 v 4.3370483 c 0,2.7787149 -0.01877,5.4823292 -0.168976,5.4823292 h -1.164056 c -0.300402,0 -0.319177,0 -0.319177,0.225301 z"
       id="path309" />
    <path
       d="m 24.557746,12.673373 c 0,0.319177 0.01877,0.337952 0.262851,0.337952 0.431828,0 0.80733,-0.05632 1.370583,-0.05632 0.563253,0 1.295482,0.05632 1.727309,0.05632 0.187751,0 0.206526,-0.03755 0.206526,-0.319176 0,-0.225302 0,-0.244077 -0.206526,-0.244077 h -1.464458 c -0.01878,0 -0.01878,-0.01877 -0.01878,-0.05632 0,-0.413052 1.03263,-3.0227913 1.520783,-4.261948 0.09388,-0.2440763 0.0751,-0.3379518 0.431827,-0.3379518 h 3.773796 c 0.281626,0 0.262851,0.018775 0.375502,0.3567269 0.375502,1.0514057 1.314257,3.7925699 1.314257,4.2431729 0,0.03755 0,0.05632 -0.01878,0.05632 H 32.81879 c -0.300402,0 -0.337952,0 -0.337952,0.225301 0,0.319177 0.01877,0.337952 0.262852,0.337952 0.431827,0 1.520783,-0.05632 2.084036,-0.05632 0.563253,0 1.408132,0.05632 1.689759,0.05632 0.187751,0 0.206526,-0.03755 0.206526,-0.319176 0,-0.225302 0,-0.244077 -0.206526,-0.244077 h -0.600803 c -0.225301,0 -1.539559,-3.7925701 -2.309338,-5.9329316 L 31.354332,0.18793144 c -0.01877,-0.0751004 -0.0751,-0.1314257 -0.168976,-0.1314257 -0.11265,0 -0.244076,0.24407631 -0.356727,0.50692772 C 30.622103,1.0703612 30.302927,1.2393371 30.152726,1.6148391 L 28.162565,6.2335139 C 27.899714,6.8343171 25.627927,12.448072 25.4214,12.448072 h -0.525702 c -0.300402,0 -0.337952,0 -0.337952,0.225301 z m 3.773795,-5.4447788 c 0,-0.056325 0.03755,-0.1502008 0.09388,-0.2816265 l 1.839959,-4.5060242 c 0.09388,-0.2253012 0.150201,-0.3567269 0.187751,-0.3567269 0.03755,0 0.0751,0.1126506 0.150201,0.3567269 l 1.558334,4.5623495 c 0.03755,0.1126506 0.0751,0.187751 0.0751,0.2440763 0,0.056325 -0.05633,0.093876 -0.244076,0.093876 h -3.360743 c -0.225302,0 -0.300402,-0.03755 -0.300402,-0.1126506 z"
       id="path311" />
    <path
       d="m 36.160767,0.67608406 c 0,0.28162651 0.112651,0.28162651 0.337952,0.28162651 h 0.544478 c 0.150201,0 3.097891,5.31335353 3.736245,6.47740973 0.0751,0.1314257 0.131426,0.2065261 0.131426,0.4318273 0,2.5158634 -0.01878,4.5811244 -0.187751,4.5811244 h -0.976306 c -0.300401,0 -0.337952,0 -0.337952,0.225301 0,0.319177 0.01878,0.337952 0.262852,0.337952 0.431827,0 1.539558,-0.05632 2.102811,-0.05632 0.563253,0 1.821185,0.05632 2.253012,0.05632 0.187751,0 0.206526,-0.03755 0.206526,-0.319176 0,-0.225302 0,-0.244077 -0.206526,-0.244077 h -1.333032 c -0.168976,0 -0.187751,-3.0791163 -0.187751,-5.3696786 0,-0.056325 0,-0.1126506 0.05633,-0.2065261 0.88243,-1.3893575 3.360743,-5.91415673 3.454619,-5.91415673 h 0.675904 c 0.225301,0 0.300401,0 0.300401,-0.28162651 0,-0.28162651 -0.05633,-0.28162651 -0.300401,-0.28162651 -0.300402,0 -0.863655,0.0563253 -1.426908,0.0563253 -0.563253,0 -1.032631,-0.0563253 -1.464458,-0.0563253 -0.244076,0 -0.262851,0.0187751 -0.262851,0.33795181 0,0.22530121 0.03755,0.22530121 0.337951,0.22530121 h 1.051406 c 0.01877,0 0.03755,0.0187751 0.03755,0.0563253 0,0.4881526 -1.971385,4.1305221 -2.628514,5.407229 -0.09388,0.1689759 -0.150201,0.2628514 -0.206526,0.2628514 -0.05632,0 -0.112651,-0.1314257 -0.206526,-0.3191767 C 41.380245,5.3135339 39.652936,2.1968672 39.258659,1.2393371 39.146008,0.97648567 39.127233,0.95771057 39.408859,0.95771057 h 1.107731 c 0.300402,0 0.337952,0 0.337952,-0.22530121 0,-0.31917671 -0.01878,-0.33795181 -0.262851,-0.33795181 -0.431828,0 -1.595884,0.0563253 -2.159137,0.0563253 -0.563253,0 -1.633434,-0.0563253 -1.933835,-0.0563253 -0.244076,0 -0.337952,0 -0.337952,0.28162651 z"
       id="path313" />
    <path
       d="m 51.969418,3.7927508 c 0,4.3558233 6.683936,3.1917671 6.683936,6.5525102 0,1.295482 -1.164056,2.271787 -2.497088,2.271787 -1.088956,0 -3.304418,-0.619578 -3.341968,-1.182831 L 52.701647,9.7069075 c -0.01877,-0.2253012 -0.0751,-0.3004016 -0.300401,-0.3004016 h -0.09388 c -0.187751,0 -0.225301,0.1126506 -0.225301,0.2628514 0,0.2628514 0.150201,2.0277107 0.187751,2.7036147 0.01877,0.187751 1.633434,0.863654 3.71747,0.863654 2.084036,0 4.205622,-1.295482 4.205622,-3.623594 0,-4.3745985 -6.66516,-2.9289157 -6.66516,-6.4210844 0,-1.3893575 1.07018,-2.42198804 2.497088,-2.42198804 1.389358,0 2.891366,1.37058234 2.891366,1.83995984 0,0.1689759 -0.05633,1.1265061 -0.05633,1.2016065 0,0.1689759 0.01878,0.2253012 0.356727,0.2253012 0.244077,0 0.300402,-0.0751 0.300402,-0.3004016 0,-0.9575302 0.09387,-2.74116473 0.09387,-2.94769084 0,-0.2253012 -0.0751,-0.2628514 -0.356727,-0.2628514 -0.281626,0 -0.281626,0.0563253 -0.281626,0.2628514 l -0.01877,0.20652611 c -0.01877,0.15020083 -0.05633,0.18775103 -0.131426,0.18775103 -0.09388,0 -0.206526,-0.0751 -0.300401,-0.1502008 -1.051406,-0.71345385 -1.858735,-0.78855426 -2.534639,-0.78855426 -2.027711,0 -4.017872,1.44568276 -4.017872,3.54849406 z"
       id="path315" />
    <path
       d="m 61.037784,2.7413451 c 0,0.1689759 0.187751,0.1689759 0.375502,0.1689759 0.168976,0 0.225301,-0.0751 0.244077,-0.3191767 l 0.131425,-1.314257 c 0.01878,-0.2065261 0.84488,-0.2440763 1.821185,-0.2440763 h 2.703615 c 0.11265,0 0.131425,0.7697791 0.131425,1.689759 0,2.046486 -0.0751,9.725502 -0.262851,9.725502 h -1.164056 c -0.300402,0 -0.337952,0 -0.337952,0.225301 0,0.319177 0.01878,0.337952 0.262851,0.337952 0.431828,0 1.708534,-0.05632 2.271787,-0.05632 0.563253,0 1.821185,0.05632 2.253012,0.05632 0.187751,0 0.206527,-0.03755 0.206527,-0.319176 0,-0.225302 0,-0.244077 -0.206527,-0.244077 h -1.389357 c -0.03755,0 -0.03755,-0.488152 -0.03755,-1.220381 0,-2.3468879 0.11265,-7.1720888 0.11265,-7.2284141 0.01878,-1.0701808 0,-2.9664659 0.187751,-2.9664659 h 2.177912 c 1.070181,0 2.121586,0.03755 2.121586,0.1502008 0,0.1126506 -0.05633,1.3705823 -0.05633,1.4644578 0,0.187751 0.05633,0.2628514 0.281627,0.2628514 0.262851,0 0.300401,-0.03755 0.300401,-0.187751 0,-1.4644578 0.0751,-2.08403614 0.0751,-2.44076305 0,-0.18775101 -0.05633,-0.20652611 -0.319177,-0.20652611 -0.150201,0 -0.225301,0.0375502 -0.244076,0.22530121 -0.01878,0.187751 -0.95753,0.2065261 -2.046486,0.2065261 H 63.92915 c -0.995081,0 -2.027711,0 -2.027711,-0.1126506 V 0.18793144 c 0,-0.1126506 -0.09388,-0.1126506 -0.244076,-0.1126506 -0.281627,0 -0.281627,0.0187751 -0.300402,0.26285141 -0.0751,0.93875505 -0.319177,2.36566265 -0.319177,2.40321285 z"
       id="path317" />
    <path
       d="m 73.71097,6.9845179 c 0,4.0178711 3.097891,6.1770081 6.101907,6.1770081 3.698695,0 6.327209,-2.534639 6.327209,-6.2896587 0,-3.6423695 -2.328112,-6.59006035 -6.045582,-6.59006035 -3.454619,0 -6.383534,2.64728915 -6.383534,6.70271095 z m 1.764859,-0.5069277 c 0,-2.8725904 1.746084,-5.67008043 4.430924,-5.67008043 3.060341,0 4.506024,3.02279123 4.506024,5.89538163 0,2.8913655 -1.483233,5.9329316 -4.581125,5.9329316 -2.722389,0 -4.355823,-2.7787147 -4.355823,-6.1582328 z"
       id="path319" />
    <path
       d="m 87.735983,0.76995956 c 0,0.28162654 0.150201,0.31917674 0.375502,0.31917674 l 1.03263,-0.03755 c 0.206527,0 0.225302,3.7174699 0.225302,6.4774097 v 2.4970882 c 0,1.333032 -0.01878,2.421988 -0.09388,2.421988 h -0.844879 c -0.300402,0 -0.337952,0 -0.337952,0.225301 0,0.319177 0.01878,0.337952 0.262851,0.337952 0.168976,0 1.276707,-0.05632 1.83996,-0.05632 0.563253,0 1.595884,0.05632 2.027711,0.05632 0.187751,0 0.206526,-0.03755 0.206526,-0.319176 0,-0.225302 0,-0.244077 -0.206526,-0.244077 h -1.145281 c -0.112651,0 -0.206526,-3.9990962 -0.206526,-5.1631525 0,-0.1126506 0.01877,-0.2065261 0.206526,-0.2065261 0.525703,0 1.333032,0.018775 1.727309,0.018775 3.060342,0.056325 3.248093,2.3656627 3.248093,4.6186745 v 1.088956 c 0,0.150201 0.01878,0.150201 0.1502,0.150201 0,0 1.858735,0.05632 2.497089,0.05632 0.225301,0 0.319176,-0.05632 0.319176,-0.150201 0,-0.394277 -0.05633,-0.413052 -0.225301,-0.413052 h -0.863654 c -0.206526,0 -0.225302,-0.150201 -0.262852,-1.220381 -0.11265,-3.0791169 -1.95261,-3.9615466 -3.135442,-4.3182735 -0.262851,-0.0751 -0.375502,-0.0751 -0.375502,-0.093876 0,-0.018775 0.131426,-0.03755 0.375502,-0.1502008 0.788555,-0.3567269 2.515864,-1.3330322 2.515864,-3.0603414 0,-2.62851413 -2.215462,-3.19176715 -4.092972,-3.19176715 -0.431827,0 -2.159137,0.11265061 -2.72239,0.11265061 -0.563253,0 -1.821184,-0.0375502 -2.121586,-0.0375502 -0.244076,0 -0.375502,0 -0.375502,0.28162651 z M 90.871425,6.4775902 V 1.9527909 c 0,-0.563253 0.05633,-1.01385543 0.131425,-1.01385543 0.319177,-0.0187751 0.657129,-0.0375502 0.976306,-0.0375502 1.764859,0 3.473393,1.10773093 3.473393,2.96646593 0,1.5771084 -0.751004,2.4032129 -1.652209,2.8162651 -0.0751,0.03755 -0.1502,0.018775 -0.225301,0.018775 -0.638353,-0.018775 -1.595883,-0.018775 -2.403213,-0.03755 -0.262851,0 -0.300401,-0.03755 -0.300401,-0.187751 z"
       id="path321" />
    <path
       d="m 99.583091,12.673373 c 0,0.319177 0.01878,0.337952 0.262851,0.337952 0.431828,0 1.839958,-0.05632 2.403208,-0.05632 0.56326,0 1.82119,0.05632 2.25302,0.05632 0.18775,0 0.20652,-0.03755 0.20652,-0.319176 0,-0.225302 0,-0.244077 -0.20652,-0.244077 h -1.33304 c -0.16897,0 -0.18775,-3.4358432 -0.18775,-5.9892569 V 3.9241765 c 0,-1.0514057 0.0188,-2.96646593 0.20653,-2.96646593 h 1.18283 c 0.3004,0 0.33795,0 0.33795,-0.22530121 0,-0.31917671 -0.0188,-0.33795181 -0.26285,-0.33795181 -0.43183,0 -1.59588,0.0563253 -2.15913,0.0563253 -0.56326,0 -1.95262,-0.0563253 -2.25302,-0.0563253 -0.244073,0 -0.375499,0 -0.375499,0.28162651 0,0.28162651 0.150201,0.28162651 0.375499,0.28162651 h 1.16406 c 0.13143,0 0.18775,1.40813253 0.18775,2.75993983 v 1.8399598 c 0,2.609739 -0.0188,6.8904618 -0.18775,6.8904618 h -1.276708 c -0.300401,0 -0.337951,0 -0.337951,0.225301 z"
       id="path323" />
    <path
       d="m 106.02295,12.673373 c 0,0.319177 0,0.337952 0.24408,0.337952 0.43183,0 1.72731,-0.05632 2.29056,-0.05632 0.56326,0 6.51496,0.05632 6.94679,0.05632 0.18775,0 0.41305,-0.03755 0.41305,-0.206526 0,-0.563253 0.0563,-1.652209 0.0563,-2.590964 0,-0.131425 -0.1502,-0.168976 -0.31918,-0.168976 -0.1502,0 -0.26285,0.03755 -0.26285,0.150201 -0.0188,0.732229 -0.0188,1.164056 -0.0563,1.633434 -0.0376,0.431827 -0.0563,0.431827 -0.35672,0.431827 -0.0751,0 -3.81135,0.05633 -5.65131,0.05633 -0.11265,0 -0.16897,-2.4970879 -0.2253,-5.1819273 0,-0.2816265 0,-0.2816265 0.3004,-0.2816265 h 3.06034 c 1.01386,0 1.03264,0.187751 1.03264,0.375502 v 0.8636546 c 0,0.1126506 0.18775,0.1689759 0.33795,0.1689759 0.13142,0 0.24407,-0.056325 0.24407,-0.1502008 0,-0.2440763 -0.0376,-0.8824297 -0.0376,-1.5583333 0,-0.6759036 0.0376,-1.295482 0.0376,-1.4644579 0,-0.093876 -0.13142,-0.1502008 -0.26285,-0.1502008 -0.1502,0 -0.31917,0.056325 -0.31917,0.1689759 v 0.9387551 c 0,0.3004016 -0.69468,0.3004016 -1.03264,0.3004016 h -3.13544 c -0.2253,0 -0.2253,-0.056325 -0.2253,-0.3004016 -0.0188,-0.9387551 -0.0375,-1.858735 -0.0375,-2.6660643 0,-1.4644579 0.0188,-2.40321293 0.13143,-2.40321293 2.08403,0 5.10682,0.0563253 5.10682,0.13142573 0,0.1126506 -0.0563,1.3705823 -0.0563,1.4644578 0,0.187751 0.0563,0.2628514 0.28163,0.2628514 0.26285,0 0.3004,-0.03755 0.3004,-0.187751 0,-1.4644578 0.0751,-2.08403614 0.0751,-2.44076306 0,-0.187751 -0.0563,-0.20652610482 -0.31918,-0.20652610482 -0.1502,0 -0.2253,0.0375502048 -0.24408,0.22530120482 -0.0376,0.22530121 0,0.24407631 -1.25793,0.24407631 -0.80733,0 -3.67992,0.0563253 -4.675,0.0563253 -0.65713,0 -1.87751,-0.0563253 -2.00893,-0.0563253 -0.1502,0 -0.2253,0.0375502 -0.2253,0.26285141 0,0.28162654 0.13142,0.28162654 0.35672,0.28162654 h 0.80733 c 0.13143,0 0.20653,1.3518072 0.20653,2.7036145 0,0.1126506 0.0751,3.4358434 0.0751,5.5198796 v 1.80241 c 0,1.03263 -0.0188,1.408132 -0.13143,1.408132 h -1.14528 c -0.3004,0 -0.31918,0 -0.31918,0.225301 z"
       id="path325" />
    <path
       d="m 117.66351,3.7927508 c 0,4.3558233 6.68393,3.1917671 6.68393,6.5525102 0,1.295482 -1.16405,2.271787 -2.49709,2.271787 -1.08895,0 -3.30441,-0.619578 -3.34196,-1.182831 l -0.11265,-1.7273095 c -0.0188,-0.2253012 -0.0751,-0.3004016 -0.30041,-0.3004016 h -0.0939 c -0.18775,0 -0.2253,0.1126506 -0.2253,0.2628514 0,0.2628514 0.1502,2.0277107 0.18775,2.7036147 0.0188,0.187751 1.63343,0.863654 3.71747,0.863654 2.08403,0 4.20562,-1.295482 4.20562,-3.623594 0,-4.3745985 -6.66516,-2.9289157 -6.66516,-6.4210844 0,-1.3893575 1.07018,-2.42198804 2.49709,-2.42198804 1.38936,0 2.89136,1.37058234 2.89136,1.83995984 0,0.1689759 -0.0563,1.1265061 -0.0563,1.2016065 0,0.1689759 0.0188,0.2253012 0.35673,0.2253012 0.24407,0 0.3004,-0.0751 0.3004,-0.3004016 0,-0.9575302 0.0939,-2.74116473 0.0939,-2.94769084 0,-0.2253012 -0.0751,-0.2628514 -0.35672,-0.2628514 -0.28163,0 -0.28163,0.0563253 -0.28163,0.2628514 l -0.0188,0.20652611 c -0.0188,0.15020083 -0.0563,0.18775103 -0.13142,0.18775103 -0.0939,0 -0.20653,-0.0751 -0.3004,-0.1502008 -1.05141,-0.71345385 -1.85874,-0.78855426 -2.53464,-0.78855426 -2.02771,0 -4.01787,1.44568276 -4.01787,3.54849406 z"
       id="path327" />
  </g>
  <g
     aria-label="BERLIN"
     id="text305"
     style="font-size:10.197px;line-height:1.25;font-family:Fanwood;-inkscape-font-specification:Fanwood;letter-spacing:0;word-spacing:0;stroke-width:0.477987">
    <path
       d="m 45.311879,15.953146 c 0,0.152955 0.08158,0.173349 0.20394,0.173349 l 0.581229,-0.02039 c 0.07138,0 0.10197,1.213443 0.10197,2.467674 v 3.293631 c 0,0.265122 0,0.428274 -0.05099,0.428274 h -0.540441 c -0.163152,0 -0.183546,0 -0.183546,0.122364 0,0.173349 0.0102,0.183546 0.142758,0.183546 0.09177,0 0.774972,-0.03059 1.080882,-0.03059 0.132561,0 0.50985,0.02039 0.978912,0.02039 1.142064,0 2.85516,-0.173349 2.85516,-1.743687 0,-1.73349 -1.998612,-1.692702 -1.998612,-1.753884 0,-0.0102 0.07138,-0.03059 0.173349,-0.07138 0.448668,-0.163152 1.52955,-0.601623 1.52955,-1.590732 0,-1.233837 -1.040094,-1.641717 -2.263734,-1.641717 -0.418077,0 -0.856548,0.03059 -1.254231,0.03059 -0.30591,0 -0.989109,-0.02039 -1.152261,-0.02039 -0.132561,0 -0.20394,0 -0.20394,0.152955 z m 1.723293,3.405798 c 0,-0.06118 0.0102,-0.112167 0.112167,-0.112167 h 0.346698 c 0.448668,0 0.91773,0.0102 1.203246,0.10197 0.652608,0.214137 0.887139,0.703593 0.887139,1.42758 0,0.764775 -0.356895,1.519353 -1.83546,1.519353 h -0.622017 c -0.09177,0 -0.09177,-2.304522 -0.09177,-2.936736 z m 0,-0.438471 v -0.489456 c 0,-0.81576 0.0102,-2.375901 0.05098,-2.386098 0.142758,-0.04079 0.275319,-0.04079 0.438471,-0.04079 1.040094,0 1.804869,0.581229 1.804869,1.590732 0,0.856548 -0.540441,1.264428 -1.009503,1.407186 -0.06118,0.02039 -0.142758,0.03059 -0.20394,0.03059 -0.06118,0 -0.163152,-0.0102 -0.336501,-0.0102 h -0.581229 c -0.142758,0 -0.163152,-0.02039 -0.163152,-0.10197 z"
       id="path330" />
    <path
       d="m 51.348513,22.418044 c 0,0.173349 0,0.183546 0.132561,0.183546 0.234531,0 0.938124,-0.03059 1.244034,-0.03059 0.30591,0 3.538359,0.03059 3.77289,0.03059 0.10197,0 0.224334,-0.02039 0.224334,-0.112167 0,-0.30591 0.03059,-0.897336 0.03059,-1.407186 0,-0.07138 -0.08158,-0.09177 -0.173349,-0.09177 -0.08158,0 -0.142758,0.02039 -0.142758,0.08158 -0.0102,0.397683 -0.0102,0.632214 -0.03059,0.887139 -0.02039,0.234531 -0.03059,0.234531 -0.193743,0.234531 -0.04079,0 -2.069991,0.03059 -3.069297,0.03059 -0.06118,0 -0.09177,-1.356201 -0.122364,-2.814372 0,-0.152955 0,-0.152955 0.163152,-0.152955 h 1.662111 c 0.550638,0 0.560835,0.10197 0.560835,0.20394 v 0.469062 c 0,0.06118 0.10197,0.09177 0.183546,0.09177 0.07138,0 0.132561,-0.03059 0.132561,-0.08158 0,-0.132561 -0.02039,-0.479259 -0.02039,-0.846351 0,-0.367092 0.02039,-0.703593 0.02039,-0.795366 0,-0.05099 -0.07138,-0.08158 -0.142758,-0.08158 -0.08158,0 -0.173349,0.03059 -0.173349,0.09177 v 0.50985 c 0,0.163152 -0.377289,0.163152 -0.560835,0.163152 h -1.702899 c -0.122364,0 -0.122364,-0.03059 -0.122364,-0.163152 -0.0102,-0.50985 -0.02039,-1.009503 -0.02039,-1.447974 0,-0.795366 0.0102,-1.305216 0.07138,-1.305216 1.131867,0 2.773584,0.03059 2.773584,0.07138 0,0.06118 -0.03059,0.744381 -0.03059,0.795366 0,0.10197 0.03059,0.142758 0.152955,0.142758 0.142758,0 0.163152,-0.02039 0.163152,-0.10197 0,-0.795366 0.04079,-1.131867 0.04079,-1.32561 0,-0.10197 -0.03059,-0.112167 -0.173349,-0.112167 -0.08158,0 -0.122364,0.02039 -0.132561,0.122364 -0.02039,0.122364 0,0.132561 -0.683199,0.132561 -0.438471,0 -1.998612,0.03059 -2.539053,0.03059 -0.356895,0 -1.0197,-0.03059 -1.091079,-0.03059 -0.08158,0 -0.122364,0.02039 -0.122364,0.142758 0,0.152955 0.07138,0.152955 0.193743,0.152955 h 0.438471 c 0.07138,0 0.112167,0.734184 0.112167,1.468368 0,0.06118 0.04079,1.866051 0.04079,2.997918 v 0.978912 c 0,0.560835 -0.0102,0.764775 -0.07138,0.764775 h -0.622017 c -0.163152,0 -0.173349,0 -0.173349,0.122364 z"
       id="path332" />
    <path
       d="m 57.517693,15.953146 c 0,0.152955 0.08158,0.173349 0.20394,0.173349 l 0.560835,-0.02039 c 0.112167,0 0.122364,2.019006 0.122364,3.517965 v 1.356201 c 0,0.723987 -0.0102,1.315413 -0.05098,1.315413 h -0.458865 c -0.163152,0 -0.183546,0 -0.183546,0.122364 0,0.173349 0.0102,0.183546 0.142758,0.183546 0.09177,0 0.693396,-0.03059 0.999306,-0.03059 0.30591,0 0.866745,0.03059 1.101276,0.03059 0.10197,0 0.112167,-0.02039 0.112167,-0.173349 0,-0.122364 0,-0.132561 -0.112167,-0.132561 h -0.622017 c -0.06118,0 -0.112167,-2.171961 -0.112167,-2.804175 0,-0.06118 0.0102,-0.112167 0.112167,-0.112167 0.285516,0 0.723987,0.0102 0.938124,0.0102 1.662111,0.03059 1.764081,1.284822 1.764081,2.508462 v 0.591426 c 0,0.08158 0.0102,0.08158 0.08158,0.08158 0,0 1.009502,0.03059 1.3562,0.03059 0.122364,0 0.173349,-0.03059 0.173349,-0.08158 0,-0.214137 -0.03059,-0.224334 -0.122364,-0.224334 h -0.469062 c -0.112167,0 -0.122364,-0.08158 -0.142758,-0.662805 -0.06118,-1.672308 -1.060487,-2.151567 -1.702898,-2.34531 -0.142758,-0.04079 -0.20394,-0.04079 -0.20394,-0.05099 0,-0.0102 0.07138,-0.02039 0.20394,-0.08158 0.428274,-0.193743 1.366397,-0.723987 1.366397,-1.662111 0,-1.42758 -1.203245,-1.73349 -2.222945,-1.73349 -0.234531,0 -1.172655,0.06118 -1.478565,0.06118 -0.30591,0 -0.989109,-0.02039 -1.152261,-0.02039 -0.132561,0 -0.20394,0 -0.20394,0.152955 z m 1.702899,3.099888 v -2.457477 c 0,-0.30591 0.03059,-0.550638 0.07138,-0.550638 0.173349,-0.0102 0.356895,-0.02039 0.530244,-0.02039 0.958518,0 1.886445,0.601623 1.886445,1.611126 0,0.856548 -0.40788,1.305216 -0.897336,1.52955 -0.04079,0.02039 -0.08158,0.0102 -0.122364,0.0102 -0.346698,-0.0102 -0.866745,-0.0102 -1.305216,-0.02039 -0.142758,0 -0.163152,-0.02039 -0.163152,-0.10197 z"
       id="path334" />
    <path
       d="m 64.053977,22.418044 c 0,0.173349 0,0.183546 0.132561,0.183546 0.234531,0 0.938124,-0.03059 1.244034,-0.03059 0.30591,0 3.477177,0.03059 3.711708,0.03059 0.10197,0 0.214137,-0.02039 0.224334,-0.112167 0.04079,-0.295713 0.214137,-1.284822 0.214137,-1.366398 0,-0.06118 -0.10197,-0.10197 -0.20394,-0.10197 -0.06118,0 -0.10197,0.03059 -0.112167,0.08158 l -0.122364,0.856548 c -0.03059,0.224334 -0.07138,0.224334 -0.234531,0.234531 -0.112167,0.0102 -1.947627,0.06118 -2.987721,0.06118 -0.06118,0 -0.08158,-0.499653 -0.08158,-1.182852 v -2.824569 c 0,-0.989109 0.0102,-2.192355 0.09177,-2.192355 h 0.71379 c 0.163152,0 0.183546,-0.03059 0.183546,-0.152955 0,-0.142758 -0.0102,-0.152955 -0.173349,-0.152955 -0.234531,0 -0.897336,0.03059 -1.203246,0.03059 -0.30591,0 -0.958518,-0.03059 -1.12167,-0.03059 -0.163152,0 -0.20394,0.0102 -0.20394,0.152955 0,0.142758 0.03059,0.152955 0.163152,0.152955 h 0.591426 c 0.06118,0 0.07138,0.356895 0.07138,0.907533 v 2.355507 c 0,1.509156 -0.0102,2.977524 -0.09177,2.977524 h -0.632214 c -0.163152,0 -0.173349,0 -0.173349,0.122364 z"
       id="path336" />
    <path
       d="m 69.988642,22.418044 c 0,0.173349 0.0102,0.183546 0.142758,0.183546 0.234531,0 0.999306,-0.03059 1.305216,-0.03059 0.30591,0 0.989109,0.03059 1.223639,0.03059 0.10197,0 0.112167,-0.02039 0.112167,-0.173349 0,-0.122364 0,-0.132561 -0.112167,-0.132561 h -0.723986 c -0.09177,0 -0.10197,-1.866051 -0.10197,-3.252843 v -1.376595 c 0,-0.571032 0.0102,-1.611126 0.112167,-1.611126 h 0.642411 c 0.163151,0 0.183545,0 0.183545,-0.122364 0,-0.173349 -0.0102,-0.183546 -0.142758,-0.183546 -0.23453,0 -0.866744,0.03059 -1.172654,0.03059 -0.30591,0 -1.060488,-0.03059 -1.22364,-0.03059 -0.132561,0 -0.20394,0 -0.20394,0.152955 0,0.152955 0.08158,0.152955 0.20394,0.152955 h 0.632214 c 0.07138,0 0.10197,0.764775 0.10197,1.498959 v 0.999306 c 0,1.417383 -0.0102,3.742299 -0.10197,3.742299 h -0.693396 c -0.163152,0 -0.183546,0 -0.183546,0.122364 z"
       id="path338" />
    <path
       d="m 73.486213,22.418044 c 0,0.173349 0.0102,0.183546 0.142758,0.183546 0.234531,0 0.530244,-0.03059 0.836154,-0.03059 0.30591,0 0.846351,0.03059 1.080882,0.03059 0.10197,0 0.112167,-0.02039 0.112167,-0.173349 0,-0.122364 0,-0.132561 -0.112167,-0.132561 h -0.876942 c -0.03059,0 -0.05098,-0.418077 -0.05098,-1.040094 0,-0.968715 0.0102,-2.416689 0.0102,-3.497571 0,-0.540441 0,-0.989109 0.0102,-1.244034 0,-0.152955 0.0102,-0.20394 0.03059,-0.20394 0.03059,0 0.08158,0.08158 0.163152,0.183546 l 5.016924,6.097806 c 0.06118,0.07138 0.132561,0.163152 0.183546,0.163152 0.05099,0 0.10197,-0.06118 0.10197,-0.224334 0,-0.112167 0.122364,-4.292937 0.132561,-5.873472 0,-0.377289 0.03059,-0.601623 0.04079,-0.601623 h 0.479259 c 0.163152,0 0.183546,0 0.183546,-0.122364 0,-0.173349 -0.0102,-0.183546 -0.142758,-0.183546 -0.234531,0 -0.530244,0.03059 -0.836154,0.03059 -0.30591,0 -0.846351,-0.03059 -1.080882,-0.03059 -0.10197,0 -0.112167,0.02039 -0.112167,0.173349 0,0.122364 0,0.132561 0.112167,0.132561 h 0.958518 c 0.0102,0 0.0102,0.224334 0.0102,0.571032 0,1.029897 0.02039,2.834766 0.02039,3.834072 v 0.428274 c 0,0.20394 -0.0102,0.285516 -0.04079,0.285516 -0.03059,0 -0.09177,-0.09177 -0.183546,-0.20394 L 75.53581,15.881767 c -0.08158,-0.10197 -0.09177,-0.132561 -0.20394,-0.132561 -0.06118,0 -0.336501,0.03059 -0.560835,0.03059 -0.214137,0 -0.999306,-0.03059 -1.142064,-0.03059 -0.10197,0 -0.112167,0.02039 -0.112167,0.173349 0,0.122364 0,0.132561 0.112167,0.132561 h 0.693396 c 0,0 -0.03059,3.446586 -0.08158,5.20047 -0.02039,0.622017 0.0102,1.040094 -0.122364,1.040094 h -0.448668 c -0.163152,0 -0.183546,0 -0.183546,0.122364 z"
       id="path340" />
  </g>
</svg>
