<svg xmlns="http://www.w3.org/2000/svg" width="100.165" height="18.062"><g aria-label="clay stories" style="font-size:18.7751px;font-family:Fanwood;-inkscape-font-specification:Fanwood;display:inline;stroke-width:1.56459"><path d="M5.276 12.617q-.676 0-1.314-.207-.62-.206-1.108-.657-.488-.47-.789-1.22-.281-.77-.281-1.878 0-1.145.319-1.934.319-.807.788-1.276.489-.488 1.07-.695.583-.225 1.108-.225.864 0 1.502.45.639.451.845 1.108h1.296q-.188-.676-.601-1.108-.413-.45-.958-.713-.525-.282-1.145-.376-.6-.112-1.164-.112-1.183 0-2.084.394-.901.376-1.52 1.033-.62.657-.94 1.54-.3.882-.3 1.877 0 1.051.338 1.971.338.901.957 1.577.639.657 1.521 1.052.883.375 1.99.375 1.24 0 2.16-.413.938-.413 1.577-.901l-.545-.714q-.657.545-1.314.808-.638.244-1.408.244M12.748.225h-1.596v13.143h1.596zM19.582 3.774q1.371 0 2.122.394.751.376 1.089.995.357.62.413 1.427t.056 1.652v5.126h-1.52v-.92q-.545.526-1.39.845-.845.3-1.69.3-.807 0-1.426-.281-.62-.282-1.033-.733-.413-.45-.62-1.014-.206-.563-.206-1.145 0-.6.225-1.201t.676-1.07q.45-.489 1.108-.79.657-.3 1.502-.3t1.596.338q.77.32 1.258.92V7.51q0-1.54-.47-2.29-.45-.752-1.67-.752-.526 0-.92.132-.395.131-.714.375-.3.226-.563.582-.263.338-.526.77l-.976-.976q.262-.282.544-.563.3-.282.713-.507.432-.226 1.014-.357.582-.15 1.408-.15m2.16 5.876q-.094-.225-.282-.525-.169-.3-.45-.582t-.677-.47q-.394-.206-.938-.206-.545 0-.995.225-.451.207-.77.563-.3.338-.47.808-.169.469-.169.976 0 .6.207 1.051.225.432.563.751.338.3.751.451.413.15.789.15.357 0 .713-.131.376-.132.695-.357.338-.244.6-.563.264-.32.433-.695zM29.909 11.171l-3.248-7.19h-1.709l4.206 9.274-.995 2.441q-.17.432-.45.695-.264.263-.62.263-.338 0-.658-.207-.3-.188-.469-.563l-.826 1.558q.357.32.788.47t.808.15q.525 0 .92-.263.394-.263.694-.695.3-.413.526-.939.225-.507.432-1.013L33.852 3.98h-.92l-2.948 7.191zM48.29 6.12q0-.506-.263-.938t-.732-.732q-.451-.32-1.07-.488-.601-.188-1.296-.188-.657 0-1.24.169-.563.169-.994.507-.413.338-.658.845-.244.488-.244 1.145 0 .901.413 1.427.414.525 1.033.845.62.319 1.333.525.732.188 1.352.432.62.225 1.033.582t.413.977q0 .262-.094.544-.075.282-.3.526-.226.225-.62.394-.395.15-.995.15-.751 0-1.277-.225-.507-.244-.845-.563-.32-.338-.47-.676-.13-.338-.13-.564h-1.221q0 .526.244 1.033.244.488.732.883.507.394 1.22.638.733.225 1.69.225 1.728 0 2.591-.75.883-.77.883-2.01 0-.901-.432-1.445-.413-.545-1.051-.864-.639-.338-1.39-.545-.732-.206-1.37-.431-.639-.226-1.07-.545-.414-.32-.414-.901 0-.244.094-.507.094-.282.32-.507.225-.244.6-.394.376-.17.939-.17t.976.17q.413.15.695.394.282.225.413.507t.131.526zM50.374 4.731v-.75h1.633V1.088h1.596V3.98h2.272v.751h-2.272v6.234q0 .225.019.525.018.282.112.545.094.244.282.413.207.169.563.169.45 0 .751-.338.3-.338.488-.732l.883.9q-.92.92-2.084.92-.488 0-.958-.168-.47-.17-.845-.507-.356-.357-.582-.901-.225-.545-.225-1.277V4.731ZM67.515 8.693q0 .976-.338 1.877-.338.883-.976 1.559-.62.676-1.52 1.07-.883.394-1.99.394-1.127 0-2.047-.394-.902-.413-1.54-1.09-.62-.675-.976-1.557-.338-.902-.338-1.86 0-.975.338-1.858.356-.901.976-1.577.638-.676 1.54-1.07.92-.413 2.046-.413 1.108 0 1.99.413.901.394 1.521 1.07.638.676.976 1.577.338.883.338 1.859m-1.783 0q0-1.314-.282-2.122-.282-.826-.732-1.276t-.995-.601q-.545-.17-1.052-.17t-1.051.17q-.545.15-1.014.6-.45.451-.751 1.277-.282.808-.282 2.122 0 1.295.282 2.121.3.808.751 1.258.47.451 1.014.62.544.15 1.051.15t1.052-.15q.544-.169.995-.62t.732-1.258q.282-.826.282-2.121M69.956 3.98v9.388h1.596v-5.67q0-.77.169-1.296.188-.544.47-.882.28-.338.619-.488t.657-.15q.432 0 .789.281.375.282.544.526l.638-1.164q-.169-.226-.413-.376-.225-.15-.47-.225-.224-.094-.43-.113-.189-.037-.283-.037-.788 0-1.314.432-.525.431-.863 1.276h-.113V3.98ZM77.729 3.98v9.388h1.596V3.98Zm-.225-2.966q0 .413.3.713t.713.3.714-.3.3-.713-.3-.714-.714-.3-.713.3-.3.714M91.247 9.087v-.394q0-1.258-.357-2.178-.356-.92-.976-1.52-.6-.602-1.408-.902t-1.709-.3q-.957 0-1.765.338-.807.319-1.408.957-.6.62-.938 1.52-.338.883-.338 2.01 0 .939.281 1.84.3.882.883 1.596.6.694 1.502 1.126.92.413 2.159.413 1.201 0 2.215-.413 1.014-.432 1.765-1.22l-.6-.601q-.395.338-.752.62-.338.281-.694.469-.357.188-.751.3-.376.094-.845.094-.526 0-1.127-.15-.582-.169-1.089-.582t-.845-1.145-.338-1.878zm-7.135-.75q0-.752.15-1.447.17-.713.489-1.257.338-.545.845-.864.507-.338 1.201-.338 1.333 0 2.066 1.051.75 1.033.75 2.854zM99.677 6.12q0-.506-.263-.938t-.732-.732q-.45-.32-1.07-.488-.601-.188-1.296-.188-.657 0-1.239.169-.563.169-.995.507-.413.338-.657.845-.244.488-.244 1.145 0 .901.413 1.427.413.525 1.033.845t1.333.525q.732.188 1.351.432.62.225 1.033.582t.413.977q0 .262-.094.544-.075.282-.3.526-.226.225-.62.394-.394.15-.995.15-.75 0-1.277-.225-.507-.244-.844-.563-.32-.338-.47-.676-.131-.338-.131-.564h-1.22q0 .526.243 1.033.244.488.733.883.507.394 1.22.638.732.225 1.69.225 1.727 0 2.59-.75.883-.77.883-2.01 0-.901-.432-1.445-.413-.545-1.051-.864-.638-.338-1.39-.545-.732-.206-1.37-.431-.638-.226-1.07-.545-.413-.32-.413-.901 0-.244.094-.507.094-.282.319-.507.225-.244.6-.394.376-.17.94-.17.563 0 .976.17.413.15.694.394.282.225.413.507.132.282.132.526z" style="font-family:&quot;Tenor Sans&quot;;-inkscape-font-specification:&quot;Tenor Sans&quot;;fill:oklch(50%.1 35)"/></g></svg>