<svg xmlns="http://www.w3.org/2000/svg" width="94.805" height="21.333" viewBox="0 0 94.805 21.333"><path fill="#87503b" d="M1.49 11.724q0-1.185.506-2.096.506-.908 1.376-1.418.889-.525 1.988-.525.784 0 1.462.229.676.232 1.163.592.506.36.72.765V7.895q-.446-.51-1.376-.87-.912-.379-1.97-.379-1.417 0-2.538.656-1.122.657-1.8 1.8-.657 1.137-.657 2.622 0 1.46.656 2.625.676 1.14 1.8 1.797 1.122.656 2.54.656 1.057 0 1.969-.36.93-.36 1.376-.889v-1.376q-.214.382-.72.761-.487.36-1.163.593-.678.232-1.462.232-1.1 0-1.988-.506-.87-.529-1.376-1.44-.51-.911-.51-2.097M11.522.083v16.51h1.099V.082Zm4.613 13.591q0-.742.337-1.207.338-.465.934-.698.612-.236 1.44-.236.89 0 1.692.255.825.232 1.545.742v-.7q-.187-.188-.637-.466-.443-.274-1.14-.487-.676-.233-1.632-.233-1.692 0-2.685.825-.976.825-.976 2.247 0 1.035.466 1.714.465.675 1.226 1.038.765.338 1.59.338.848 0 1.673-.36t1.376-1.103.548-1.882l-.251-.93q0 1.08-.424 1.818-.424.743-1.125 1.126-.675.375-1.5.375-.676 0-1.25-.23-.55-.254-.888-.742-.32-.487-.32-1.204m.042-5.04q.278-.21.679-.443.424-.232.994-.405.574-.169 1.294-.169.697 0 1.185.192.487.19.761.51.297.315.424.716.128.383.128.806v6.751h1.098v-6.9q0-.976-.423-1.65-.424-.676-1.204-1.036-.788-.36-1.887-.36-1.29 0-2.179.401-.87.38-1.417.762zm16.915-1.778h-1.223l-3.45 8.255.506.045-3.533-8.3h-1.313l3.938 8.742-2.497 5.652h1.226zm8.086 6.965-.89.51q.215.611.657 1.185.469.57 1.208.93.761.36 1.778.36 1.398 0 2.265-.784.889-.802.889-2.074 0-.825-.424-1.354-.401-.529-1.08-.889-.653-.36-1.437-.656-.592-.214-1.125-.446-.525-.233-.844-.593-.318-.382-.318-.952 0-.698.487-1.058.506-.36 1.227-.36.975 0 1.59.465t.952 1.103l.908-.552q-.251-.551-.72-.994-.465-.446-1.122-.72-.656-.273-1.481-.277-.761 0-1.44.277-.656.252-1.08.803-.402.551-.402 1.376 0 .867.402 1.418.424.529 1.061.848.638.318 1.313.57.634.213 1.185.487.547.255.889.657.337.382.337.975 0 .802-.551 1.267-.525.447-1.418.447-.761 0-1.331-.274-.551-.278-.911-.72-.36-.443-.574-.975m7.073-6.965v1.039h4.276V6.856Zm1.587-3.387v13.127h1.102V3.469Zm3.705 8.255q0 1.463.656 2.625.657 1.144 1.778 1.8 1.144.657 2.562.657t2.539-.656q1.144-.657 1.8-1.8.656-1.163.656-2.626 0-1.481-.656-2.625t-1.8-1.8q-1.122-.653-2.54-.653t-2.56.656q-1.126.657-1.779 1.8-.656 1.14-.656 2.626m1.121 0q0-1.185.507-2.097.51-.907 1.376-1.417.889-.525 1.988-.525t1.973.525q.888.51 1.395 1.44.51.911.51 2.074 0 1.185-.51 2.1-.507.908-1.395 1.437-.87.506-1.97.506-1.098 0-1.987-.506-.87-.53-1.38-1.44-.51-.912-.507-2.097m12.47-4.872h-1.102v9.736h1.103zm3.237 1.29.615-.907q-.337-.32-.76-.447-.406-.15-.871-.15-.761 0-1.395.533-.615.525-.975 1.44-.36.889-.36 2.051h.51q0-.825.187-1.5.188-.675.615-1.084.447-.4 1.163-.4.382 0 .656.127.3.105.615.337m2.48-5.693q0 .319.232.551t.548.233q.337 0 .55-.233.233-.232.233-.551 0-.338-.232-.551-.21-.233-.551-.233-.316 0-.548.233-.233.213-.233.551m.233 4.403v9.736h1.099V6.856Zm8.341 9.95q1.459 0 2.539-.593 1.099-.615 1.924-1.882l-.889-.574q-.656 1.039-1.5 1.526-.825.488-1.95.488-1.058 0-1.86-.51-.788-.51-1.23-1.44-.424-.93-.424-2.18 0-1.23.446-2.118.442-.908 1.226-1.396.807-.51 1.887-.51.93 0 1.672.447.74.442 1.163 1.226.446.784.446 1.778 0 .169-.063.36-.045.169-.087.277l.465-.656h-7.576v.953h8.402q.022-.11.022-.255.023-.15.023-.274 0-1.422-.574-2.502-.552-1.099-1.568-1.714-.994-.611-2.325-.611-1.377 0-2.438.656-1.058.634-1.65 1.778-.593 1.144-.593 2.625t.574 2.644q.593 1.144 1.609 1.8 1.013.657 2.325.657m7.115-2.985-.889.51q.21.611.656 1.185.465.57 1.208.93.761.36 1.778.36 1.395 0 2.265-.784.889-.802.889-2.074 0-.825-.424-1.354-.401-.529-1.08-.889-.656-.36-1.44-.656-.593-.214-1.122-.446-.528-.233-.847-.593-.315-.382-.315-.952 0-.698.487-1.058.507-.36 1.227-.36.975 0 1.586.465.615.465.953 1.103l.911-.552q-.255-.551-.72-.994t-1.125-.72q-.653-.277-1.478-.277-.761 0-1.44.277-.656.252-1.08.803-.401.551-.401 1.376 0 .867.4 1.418.425.529 1.058.848.638.318 1.313.57.638.213 1.185.487.552.255.89.657.337.382.337.975 0 .802-.548 1.267-.529.447-1.418.447-.76 0-1.335-.274-.551-.278-.911-.72-.36-.443-.57-.975" aria-label="clay stories" style="stroke-width:3.75047"/></svg>