<svg xmlns="http://www.w3.org/2000/svg" width="94.805" height="21.333" viewBox="0 0 25.084 5.644">
<path fill="#87503b" aria-label="clay stories" d="M.3 3.104q0-.316.135-.559.135-.242.367-.378.237-.14.53-.14.209 0 .39.061.18.062.31.158.135.096.192.204v-.367q-.119-.136-.367-.232-.243-.101-.525-.101-.378 0-.677.175t-.48.48Q0 2.708 0 3.104q0 .389.175.7.18.304.48.479.299.175.677.175.282 0 .525-.096.248-.096.367-.237v-.367q-.057.102-.192.203-.13.096-.31.158-.181.062-.39.062-.293 0-.53-.135-.232-.141-.367-.384-.136-.243-.136-.559M2.975 0v4.402h.293V0Zm1.23 3.624q0-.198.09-.322t.249-.186q.163-.063.384-.063.237 0 .451.068.22.062.412.198v-.187q-.05-.05-.17-.124-.118-.073-.304-.13-.18-.062-.435-.062-.451 0-.716.22-.26.22-.26.599 0 .276.124.457.124.18.327.277.204.09.424.09.226 0 .446-.096t.367-.294.146-.502l-.067-.248q0 .288-.113.485-.113.198-.3.3-.18.1-.4.1-.18 0-.333-.061-.147-.068-.237-.198-.085-.13-.085-.321m.011-1.344q.074-.056.181-.118.113-.062.265-.108.153-.045.345-.045.186 0 .316.051t.203.136q.079.084.113.191.034.102.034.215v1.8h.293v-1.84q0-.26-.113-.44t-.321-.276q-.21-.096-.503-.096-.344 0-.581.107-.232.101-.378.203zm4.51-.474H8.4l-.92 2.201.135.012-.942-2.213h-.35l1.05 2.331-.666 1.507h.327zm2.156 1.857-.237.136q.057.163.175.316.125.152.322.248.203.096.474.096.373 0 .604-.209.237-.214.237-.553 0-.22-.113-.361-.107-.141-.288-.237-.174-.096-.383-.175-.158-.057-.3-.119-.14-.062-.225-.158-.085-.102-.085-.254 0-.186.13-.282.135-.096.327-.096.26 0 .424.124t.254.294l.242-.147q-.067-.147-.192-.265-.124-.119-.299-.192t-.395-.074q-.203 0-.384.074-.175.067-.288.214-.107.147-.107.367 0 .231.107.378.113.141.283.226t.35.152q.169.057.316.13.146.068.237.175.09.102.09.26 0 .214-.147.338-.14.119-.378.119-.203 0-.355-.073-.147-.074-.243-.192t-.153-.26m1.886-1.857v.277h1.14v-.277Zm.423-.903v3.5h.294v-3.5Zm.988 2.201q0 .39.175.7.175.305.474.48.305.175.683.175t.677-.175q.305-.175.48-.48.175-.31.175-.7 0-.395-.175-.7t-.48-.48q-.299-.174-.677-.174t-.683.175q-.3.175-.474.48-.175.304-.175.7m.299 0q0-.316.135-.559.136-.242.367-.378.237-.14.53-.14t.526.14q.237.136.372.384.136.243.136.553 0 .316-.136.56-.135.242-.372.383-.232.135-.525.135t-.53-.135q-.232-.141-.368-.384t-.135-.559m3.325-1.299h-.294v2.596h.294zm.863.344.164-.242q-.09-.085-.203-.119-.108-.04-.232-.04-.203 0-.372.142-.164.14-.26.384-.096.237-.096.547h.136q0-.22.05-.4t.164-.289q.119-.107.31-.107.102 0 .175.034.08.028.164.09m.661-1.518q0 .085.062.147t.146.062q.09 0 .147-.062.062-.062.062-.147 0-.09-.062-.147-.056-.062-.147-.062-.084 0-.146.062-.062.057-.062.147m.062 1.174v2.596h.293V1.806Zm2.224 2.653q.389 0 .677-.158.293-.164.513-.502l-.237-.153q-.175.277-.4.407-.22.13-.52.13-.282 0-.496-.136-.21-.136-.328-.384-.113-.248-.113-.581 0-.328.119-.565.118-.242.327-.372.215-.136.503-.136.248 0 .446.119.197.118.31.327.119.209.119.474 0 .045-.017.096-.012.045-.023.074l.124-.175h-2.02v.254h2.24q.006-.029.006-.068.006-.04.006-.073 0-.379-.153-.667-.147-.293-.418-.457-.265-.163-.62-.163-.367 0-.65.175-.282.169-.44.474t-.158.7.153.705q.158.305.429.48.27.175.62.175m1.897-.796-.237.136q.056.163.175.316.124.152.322.248.203.096.474.096.372 0 .604-.209.237-.214.237-.553 0-.22-.113-.361-.107-.141-.288-.237-.175-.096-.384-.175-.158-.057-.299-.119t-.226-.158q-.084-.102-.084-.254 0-.186.13-.282.135-.096.327-.096.26 0 .423.124.164.124.254.294l.243-.147q-.068-.147-.192-.265t-.3-.192q-.174-.074-.394-.074-.203 0-.384.074-.175.067-.288.214-.107.147-.107.367 0 .231.107.378.113.141.282.226.17.085.35.152.17.057.316.13.147.068.237.175.09.102.09.26 0 .214-.146.338-.141.119-.378.119-.203 0-.356-.073-.147-.074-.243-.192t-.152-.26"/>
</svg>
