<?xml version="1.0" encoding="UTF-8" standalone="no"?>
<svg
   width="100.16518"
   height="18.061647"
   version="1.1"
   id="svg12"
   sodipodi:docname="logo.svg"
   inkscape:version="1.2.2 (b0a8486541, 2022-12-01)"
   xmlns:inkscape="http://www.inkscape.org/namespaces/inkscape"
   xmlns:sodipodi="http://sodipodi.sourceforge.net/DTD/sodipodi-0.dtd"
   xmlns="http://www.w3.org/2000/svg"
   xmlns:svg="http://www.w3.org/2000/svg">
  <defs
     id="defs16" />
  <sodipodi:namedview
     id="namedview14"
     pagecolor="#ffffff"
     bordercolor="#666666"
     borderopacity="1.0"
     inkscape:showpageshadow="2"
     inkscape:pageopacity="0.0"
     inkscape:pagecheckerboard="0"
     inkscape:deskcolor="#d1d1d1"
     showgrid="false"
     inkscape:zoom="7.5983616"
     inkscape:cx="47.839261"
     inkscape:cy="23.820925"
     inkscape:window-width="1920"
     inkscape:window-height="1131"
     inkscape:window-x="0"
     inkscape:window-y="0"
     inkscape:window-maximized="1"
     inkscape:current-layer="svg12" />
  <text
     xml:space="preserve"
     x="-0.93875504"
     y="13.367871"
     style="font-style:normal;font-variant:normal;font-weight:400;font-stretch:normal;font-size:18.7751px;font-family:Fanwood;-inkscape-font-specification:Fanwood;display:none;stroke-width:1.56459"
     id="text4"><tspan
       x="-0.93875504"
       y="13.367871"
       style="font-style:normal;font-variant:normal;font-weight:normal;font-stretch:normal;font-family:'Tenor Sans';-inkscape-font-specification:'Tenor Sans';fill:oklch(50% 0.1 35);fill-opacity:1;stroke-width:1.56459"
       id="tspan2">clay stories</tspan></text>
  <g
     aria-label="clay stories"
     id="text2398"
     style="font-size:18.7751px;font-family:Fanwood;-inkscape-font-specification:Fanwood;display:inline;stroke-width:1.56459">
    <path
       d="m 5.2758033,12.616867 q -0.6759036,0 -1.3142571,-0.206526 Q 3.3419679,12.203815 2.8538153,11.753213 2.3656627,11.283835 2.0652611,10.532831 1.7836346,9.7630519 1.7836346,8.655321 q 0,-1.1452811 0.3191767,-1.9338354 Q 2.421988,5.9141563 2.8913655,5.4447788 3.3795181,4.9566262 3.9615462,4.7501001 4.5435744,4.5247989 5.0692772,4.5247989 q 0.8636546,0 1.502008,0.4506024 0.6383535,0.4506024 0.8448796,1.1077309 H 8.7116467 Q 8.5238957,5.4072286 8.1108435,4.9754013 7.6977913,4.5247989 7.1533134,4.2619474 6.6276105,3.9803209 6.0080322,3.8864454 5.407229,3.7737948 4.843976,3.7737948 q -1.1828314,0 -2.0840362,0.3942771 Q 1.858735,4.543574 1.2391566,5.2007025 0.61957832,5.857831 0.30040161,6.7402607 0,7.6226905 0,8.6177708 q 0,1.0514056 0.33795181,1.9713852 0.33795182,0.901205 0.95753009,1.577109 0.6383535,0.657128 1.5207832,1.051405 0.8824297,0.375502 1.9901607,0.375502 1.2391566,0 2.1591366,-0.413052 0.938755,-0.413052 1.5771084,-0.901205 L 7.9981929,11.565462 q -0.6571285,0.544478 -1.314257,0.807329 -0.6383535,0.244076 -1.4081326,0.244076 z"
       style="font-family:'Tenor Sans';-inkscape-font-specification:'Tenor Sans';fill:oklch(50% 0.1 35)"
       id="path2400" />
    <path
       d="M 12.748306,0.22530079 H 11.152422 V 13.367871 h 1.595884 z"
       style="font-family:'Tenor Sans';-inkscape-font-specification:'Tenor Sans';fill:oklch(50% 0.1 35)"
       id="path2402" />
    <path
       d="m 19.582439,3.7737948 q 1.370582,0 2.121586,0.3942771 0.751005,0.3755021 1.088956,0.9950804 0.356727,0.6195783 0.413053,1.4269076 0.05633,0.8073294 0.05633,1.6522089 v 5.1256022 h -1.520783 v -0.91998 q -0.544478,0.525703 -1.389358,0.84488 -0.844879,0.300401 -1.689759,0.300401 -0.807329,0 -1.426907,-0.281626 -0.619579,-0.281627 -1.032631,-0.732229 -0.413052,-0.450602 -0.619578,-1.013855 -0.206526,-0.563253 -0.206526,-1.145282 0,-0.6008027 0.225301,-1.201606 0.225301,-0.6008032 0.675903,-1.0701807 0.450603,-0.4881526 1.107731,-0.7885542 0.657129,-0.3004017 1.502008,-0.3004017 0.84488,0 1.595884,0.3379519 0.769779,0.3191767 1.257932,0.9199799 V 7.5100399 q 0,-1.5395583 -0.469378,-2.2905623 -0.450602,-0.7510041 -1.670984,-0.7510041 -0.525703,0 -0.91998,0.1314258 -0.394277,0.1314257 -0.713454,0.375502 -0.300401,0.2253012 -0.563253,0.5820281 -0.262851,0.3379518 -0.525702,0.7697791 L 15.902519,5.3509033 q 0.262852,-0.2816265 0.544478,-0.563253 0.300402,-0.2816265 0.713454,-0.5069278 0.431827,-0.2253012 1.013856,-0.3567269 0.582028,-0.1502008 1.408132,-0.1502008 z m 2.159137,5.8766065 Q 21.6477,9.4251001 21.459949,9.1246985 21.290973,8.8242969 21.009347,8.5426704 20.72772,8.2610439 20.333443,8.0732929 19.939166,7.8667668 19.394688,7.8667668 q -0.544478,0 -0.99508,0.2253012 -0.450603,0.2065261 -0.769779,0.563253 -0.300402,0.3379518 -0.469378,0.8073293 -0.168976,0.4693776 -0.168976,0.9763057 0,0.600803 0.206526,1.051405 0.225302,0.431828 0.563253,0.751004 0.337952,0.300402 0.751004,0.450603 0.413053,0.1502 0.788555,0.1502 0.356727,0 0.713453,-0.131425 0.375502,-0.131426 0.694679,-0.356727 0.337952,-0.244076 0.600803,-0.563253 0.262852,-0.319177 0.431828,-0.694679 z"
       style="font-family:'Tenor Sans';-inkscape-font-specification:'Tenor Sans';fill:oklch(50% 0.1 35)"
       id="path2404" />
    <path
       d="M 29.908763,11.171185 26.66067,3.9803209 h -1.708534 l 4.205623,9.2749001 -0.995081,2.440763 q -0.168975,0.431827 -0.450602,0.694678 -0.262851,0.262852 -0.619578,0.262852 -0.337952,0 -0.657129,-0.206526 -0.300401,-0.187751 -0.469377,-0.563253 l -0.826105,1.558333 q 0.356727,0.319177 0.788554,0.469378 0.431828,0.1502 0.80733,0.1502 0.525703,0 0.91998,-0.262851 0.394277,-0.262851 0.694678,-0.694679 0.300402,-0.413052 0.525703,-0.938755 0.225301,-0.506927 0.431828,-1.013855 L 33.851534,3.9803209 h -0.91998 l -2.947691,7.1908641 z"
       style="font-family:'Tenor Sans';-inkscape-font-specification:'Tenor Sans';fill:oklch(50% 0.1 35)"
       id="path2406" />
    <path
       d="m 48.289586,6.1206824 q 0,-0.5069277 -0.262851,-0.938755 -0.262852,-0.4318273 -0.732229,-0.732229 -0.450603,-0.3191767 -1.070181,-0.4881526 -0.600803,-0.187751 -1.295482,-0.187751 -0.657129,0 -1.239157,0.1689759 -0.563253,0.1689759 -0.99508,0.5069277 -0.413052,0.3379519 -0.657129,0.8448796 -0.244076,0.4881526 -0.244076,1.1452811 0,0.9012049 0.413052,1.4269077 0.413053,0.5257028 1.032631,0.8448795 0.619578,0.3191767 1.333032,0.5257028 0.732229,0.187751 1.351807,0.4318273 0.619579,0.2253013 1.032631,0.5820286 0.413052,0.356726 0.413052,0.976305 0,0.262851 -0.09387,0.544478 -0.0751,0.281626 -0.300402,0.525703 -0.225301,0.225301 -0.619578,0.394277 -0.394278,0.1502 -0.995081,0.1502 -0.751004,0 -1.276707,-0.225301 -0.506927,-0.244076 -0.844879,-0.563253 -0.319177,-0.337952 -0.469378,-0.675903 -0.131425,-0.337952 -0.131425,-0.563253 h -1.220382 q 0,0.525702 0.244076,1.03263 0.244077,0.488153 0.732229,0.88243 0.506928,0.394277 1.220382,0.638353 0.732229,0.225301 1.689759,0.225301 1.727309,0 2.590964,-0.751004 0.88243,-0.769779 0.88243,-2.008935 0,-0.9012051 -0.431828,-1.4456831 Q 47.932859,8.843072 47.294506,8.5238953 46.656152,8.1859435 45.905148,7.9794174 45.172919,7.7728913 44.534566,7.5475901 43.896212,7.3222889 43.464385,7.0031121 43.051333,6.6839354 43.051333,6.1019073 q 0,-0.2440763 0.09387,-0.5069277 0.09388,-0.2816265 0.319177,-0.5069277 0.225301,-0.2440763 0.600803,-0.3942771 0.375502,-0.1689759 0.938755,-0.1689759 0.563253,0 0.976306,0.1689759 0.413052,0.1502008 0.694678,0.3942771 0.281627,0.2253012 0.413053,0.5069277 0.131425,0.2816265 0.131425,0.5257028 z"
       style="font-family:'Tenor Sans';-inkscape-font-specification:'Tenor Sans';fill:oklch(50% 0.1 35)"
       id="path2408" />
    <path
       d="M 50.373617,4.731325 V 3.9803209 h 1.633434 V 1.0889554 h 1.595883 v 2.8913655 h 2.271787 V 4.731325 h -2.271787 v 6.233333 q 0,0.225302 0.01878,0.525703 0.01877,0.281627 0.112651,0.544478 0.09387,0.244076 0.281626,0.413052 0.206526,0.168976 0.563253,0.168976 0.450603,0 0.751004,-0.337952 0.300402,-0.337951 0.488153,-0.732228 l 0.88243,0.901204 q -0.91998,0.91998 -2.084036,0.91998 -0.488153,0 -0.957531,-0.168976 -0.469377,-0.168976 -0.844879,-0.506927 -0.356727,-0.356727 -0.582028,-0.901205 -0.225301,-0.544478 -0.225301,-1.276707 V 4.731325 Z"
       style="font-family:'Tenor Sans';-inkscape-font-specification:'Tenor Sans';fill:oklch(50% 0.1 35)"
       id="path2410" />
    <path
       d="m 67.515282,8.6928712 q 0,0.9763052 -0.337952,1.8775098 -0.337952,0.88243 -0.976305,1.558334 -0.619579,0.675903 -1.520783,1.07018 -0.88243,0.394277 -1.990161,0.394277 -1.126506,0 -2.046486,-0.394277 Q 59.74239,12.785843 59.104037,12.10994 58.484458,11.434036 58.127731,10.551606 57.78978,9.6504013 57.78978,8.6928712 q 0,-0.9763052 0.337951,-1.858735 0.356727,-0.9012048 0.976306,-1.5771084 0.638353,-0.6759036 1.539558,-1.0701808 0.91998,-0.4130522 2.046486,-0.4130522 1.107731,0 1.990161,0.4130522 0.901204,0.3942772 1.520783,1.0701808 0.638353,0.6759036 0.976305,1.5771084 0.337952,0.8824298 0.337952,1.858735 z m -1.783635,0 q 0,-1.314257 -0.281626,-2.1215864 Q 65.168394,5.7451804 64.717792,5.294578 64.267189,4.8439756 63.722711,4.6937748 63.178234,4.5247989 62.671306,4.5247989 q -0.506928,0 -1.051406,0.1689759 -0.544478,0.1502008 -1.013855,0.6008032 -0.450603,0.4506024 -0.751004,1.2767068 -0.281627,0.8073294 -0.281627,2.1215864 0,1.295482 0.281627,2.1215868 0.300401,0.807329 0.751004,1.257931 0.469377,0.450603 1.013855,0.619579 0.544478,0.1502 1.051406,0.1502 0.506928,0 1.051405,-0.1502 0.544478,-0.168976 0.995081,-0.619579 0.450602,-0.450602 0.732229,-1.257931 0.281626,-0.8261048 0.281626,-2.1215868 z"
       style="font-family:'Tenor Sans';-inkscape-font-specification:'Tenor Sans';fill:oklch(50% 0.1 35)"
       id="path2412" />
    <path
       d="m 69.956045,3.9803209 v 9.3875501 h 1.595883 V 7.6977909 q 0,-0.7697792 0.168976,-1.295482 0.187751,-0.5444779 0.469378,-0.8824297 0.281626,-0.3379518 0.619578,-0.4881526 0.337952,-0.1502008 0.657129,-0.1502008 0.431827,0 0.788554,0.2816265 0.375502,0.2816265 0.544478,0.5257028 L 75.438374,4.5247989 Q 75.269398,4.2994976 75.025322,4.1492968 74.800021,3.999096 74.555944,3.9239956 74.330643,3.8301201 74.124117,3.811345 q -0.187751,-0.03755 -0.281626,-0.03755 -0.788555,0 -1.314257,0.4318273 -0.525703,0.4318274 -0.863655,1.2767069 H 71.551928 V 3.9803209 Z"
       style="font-family:'Tenor Sans';-inkscape-font-specification:'Tenor Sans';fill:oklch(50% 0.1 35)"
       id="path2414" />
    <path
       d="M 77.728937,3.9803209 V 13.367871 H 79.32482 V 3.9803209 Z M 77.503635,1.013855 q 0,0.4130522 0.300402,0.7134538 0.300402,0.3004017 0.713454,0.3004017 0.413052,0 0.713454,-0.3004017 0.300401,-0.3004016 0.300401,-0.7134538 0,-0.4130522 -0.300401,-0.71345381 Q 78.930543,-4.196167e-7 78.517491,-4.196167e-7 q -0.413052,0 -0.713454,0.3004016096167 Q 77.503635,0.6008028 77.503635,1.013855 Z"
       style="font-family:'Tenor Sans';-inkscape-font-specification:'Tenor Sans';fill:oklch(50% 0.1 35)"
       id="path2416" />
    <path
       d="M 91.247023,9.0871483 V 8.6928712 q 0,-1.2579317 -0.356726,-2.1779117 Q 90.53357,5.5949796 89.913991,4.9941764 89.313188,4.3933731 88.505859,4.0929715 87.698529,3.7925699 86.797325,3.7925699 q -0.957531,0 -1.76486,0.3379518 -0.807329,0.3191767 -1.408132,0.9575302 -0.600804,0.6195783 -0.938755,1.5207831 -0.337952,0.8824298 -0.337952,2.0089358 0,0.938755 0.281626,1.8399602 0.300402,0.882429 0.88243,1.595883 0.600803,0.694679 1.502008,1.126506 0.91998,0.413052 2.159137,0.413052 1.201606,0 2.215461,-0.413052 1.013856,-0.431827 1.76486,-1.220381 l -0.600803,-0.600803 q -0.394277,0.337951 -0.751004,0.619578 -0.337952,0.281626 -0.694679,0.469377 -0.356727,0.187751 -0.751004,0.300402 -0.375502,0.09387 -0.84488,0.09387 -0.525702,0 -1.126506,-0.1502 -0.582028,-0.168976 -1.088955,-0.582028 -0.506928,-0.413053 -0.84488,-1.145282 -0.337952,-0.732229 -0.337952,-1.8775097 z m -7.134538,-0.751004 q 0,-0.751004 0.150201,-1.4456828 0.168976,-0.7134538 0.488153,-1.2579317 0.337951,-0.5444779 0.844879,-0.8636546 0.506928,-0.3379519 1.201607,-0.3379519 1.333032,0 2.065261,1.0514057 0.751004,1.0326305 0.751004,2.8538153 z"
       style="font-family:'Tenor Sans';-inkscape-font-specification:'Tenor Sans';fill:oklch(50% 0.1 35)"
       id="path2418" />
    <path
       d="m 99.677029,6.1206824 q 0,-0.5069277 -0.262851,-0.938755 -0.262851,-0.4318273 -0.732229,-0.732229 -0.450602,-0.3191767 -1.070181,-0.4881526 -0.600803,-0.187751 -1.295482,-0.187751 -0.657128,0 -1.239156,0.1689759 -0.563253,0.1689759 -0.995081,0.5069277 -0.413052,0.3379519 -0.657128,0.8448796 -0.244076,0.4881526 -0.244076,1.1452811 0,0.9012049 0.413052,1.4269077 0.413052,0.5257028 1.03263,0.8448795 0.619579,0.3191767 1.333033,0.5257028 0.732228,0.187751 1.351807,0.4318273 0.619578,0.2253013 1.03263,0.5820286 0.413053,0.356726 0.413053,0.976305 0,0.262851 -0.09388,0.544478 -0.0751,0.281626 -0.300402,0.525703 -0.225301,0.225301 -0.619578,0.394277 -0.394277,0.1502 -0.99508,0.1502 -0.751004,0 -1.276707,-0.225301 -0.506928,-0.244076 -0.84488,-0.563253 -0.319176,-0.337952 -0.469377,-0.675903 -0.131426,-0.337952 -0.131426,-0.563253 h -1.220381 q 0,0.525702 0.244076,1.03263 0.244076,0.488153 0.732229,0.88243 0.506928,0.394277 1.220381,0.638353 0.732229,0.225301 1.689759,0.225301 1.72731,0 2.590964,-0.751004 0.882428,-0.769779 0.882428,-2.008935 0,-0.9012051 -0.431825,-1.4456831 Q 99.320303,8.843072 98.681949,8.5238953 98.043596,8.1859435 97.292592,7.9794174 96.560363,7.7728913 95.922009,7.5475901 95.283656,7.3222889 94.851829,7.0031121 94.438776,6.6839354 94.438776,6.1019073 q 0,-0.2440763 0.09388,-0.5069277 0.09387,-0.2816265 0.319177,-0.5069277 0.225301,-0.2440763 0.600803,-0.3942771 0.375502,-0.1689759 0.938755,-0.1689759 0.563253,0 0.976305,0.1689759 0.413052,0.1502008 0.694679,0.3942771 0.281626,0.2253012 0.413052,0.5069277 0.131426,0.2816265 0.131426,0.5257028 z"
       style="font-family:'Tenor Sans';-inkscape-font-specification:'Tenor Sans';fill:oklch(50% 0.1 35)"
       id="path2420" />
  </g>
</svg>
