<?xml version="1.0" encoding="UTF-8" standalone="no"?>
<svg
   width="16"
   height="16"
   viewBox="0 0 305 305"
   version="1.1"
   id="svg4"
   sodipodi:docname="instagram.svg"
   inkscape:version="1.2.2 (b0a8486541, 2022-12-01)"
   xmlns:inkscape="http://www.inkscape.org/namespaces/inkscape"
   xmlns:sodipodi="http://sodipodi.sourceforge.net/DTD/sodipodi-0.dtd"
   xmlns="http://www.w3.org/2000/svg"
   xmlns:svg="http://www.w3.org/2000/svg">
  <defs
     id="defs8" />
  <sodipodi:namedview
     id="namedview6"
     pagecolor="#ffffff"
     bordercolor="#666666"
     borderopacity="1.0"
     inkscape:showpageshadow="2"
     inkscape:pageopacity="0.0"
     inkscape:pagecheckerboard="0"
     inkscape:deskcolor="#d1d1d1"
     showgrid="false"
     inkscape:zoom="38.708333"
     inkscape:cx="8.0473628"
     inkscape:cy="8.0344456"
     inkscape:window-width="2560"
     inkscape:window-height="1403"
     inkscape:window-x="0"
     inkscape:window-y="0"
     inkscape:window-maximized="1"
     inkscape:current-layer="svg4" />
  <path
     id="path469"
     d="M 76.845099,0 C 34.455139,0 0,34.455139 0,76.845099 V 227.865 c 0,42.38996 34.455139,76.8451 76.845099,76.8451 H 227.865 c 42.38996,0 76.8451,-34.45514 76.8451,-76.8451 V 76.845099 C 304.7101,34.455139 270.25496,0 227.865,0 Z m 0,33.156139 H 227.865 c 24.09998,0 43.68896,19.58898 43.68896,43.68896 V 227.865 c 0,24.09998 -19.58898,43.68896 -43.68896,43.68896 H 76.845099 c -24.09998,0 -43.68896,-19.58898 -43.68896,-43.68896 V 76.845099 c 0,-24.09998 19.58898,-43.68896 43.68896,-43.68896 z m 156.508841,19.80467 c -10.23999,0 -18.58079,8.3408 -18.58079,18.58079 0,10.23999 8.3408,18.5437 18.58079,18.5437 10.23999,0 18.58079,-8.30371 18.58079,-18.5437 0,-10.23999 -8.3408,-18.58079 -18.58079,-18.58079 z m -80.99889,20.9173 c -43.26996,0 -78.476941,35.206981 -78.476941,78.476941 0,43.27996 35.206981,78.47694 78.476941,78.47694 43.27996,0 78.47694,-35.19698 78.47694,-78.47694 0,-43.26996 -35.19698,-78.476941 -78.47694,-78.476941 z m 0,33.156131 c 24.98998,0 45.32081,20.34083 45.32081,45.32081 0,24.98998 -20.33083,45.32081 -45.32081,45.32081 -24.97998,0 -45.32081,-20.33083 -45.32081,-45.32081 0,-24.97998 20.34083,-45.32081 45.32081,-45.32081 z" />
</svg>
